
<svg xmlns="http://www.w3.org/2000/svg" version="1.1" xmlns:xlink="http://www.w3.org/1999/xlink" preserveAspectRatio="none" x="0px" y="0px" width="550px" height="400px" viewBox="0 0 550 400">
<defs>
<g id="Message_0_Layer0_0_FILL">
<path fill="#FFFFFF" stroke="none" d="
M 55 -1.5
Q 52.5 -4 48.9 -4
L 2.2 -4
Q -1.4 -4 -3.95 -1.5 -6.45 1.05 -6.45 4.65
L -6.45 4.7
Q -6.45 8.3 -3.95 10.8 -1.4 13.35 2.2 13.35
L 48.9 13.35
Q 52.5 13.35 55 10.8 56.542578125 9.2876953125 57.15 7.35 60.9654296875 4.4537109375 62.6 1.7 60.7423828125 3.1552734375 57.4 3.15 57.0025390625 0.5025390625 55 -1.5 Z"/>
</g>

<path id="Message_0_Layer0_0_1_STROKES" stroke="#000000" stroke-width="1" stroke-linejoin="round" stroke-linecap="round" fill="none" d="
M 2.2 -4
L 48.9 -4
Q 52.5 -4 55 -1.5 57.0025390625 0.5025390625 57.425 3.15 60.7423828125 3.1552734375 62.6 1.7 60.9654296875 4.4537109375 57.15 7.375 56.542578125 9.2876953125 55 10.8 52.5 13.35 48.9 13.35
L 2.2 13.35
Q -1.4 13.35 -3.95 10.8 -6.45 8.3 -6.45 4.7
L -6.45 4.65
Q -6.45 1.05 -3.95 -1.5 -1.4 -4 2.2 -4 Z"/>
</defs>

<g transform="matrix( 1, 0, 0, 1, 238.25,184.05) ">
<g transform="matrix( 1, 0, 0, 1, 0,0) ">
<use xlink:href="#Message_0_Layer0_0_FILL"/>

<use xlink:href="#Message_0_Layer0_0_1_STROKES"/>
</g>
</g>
</svg>
