
<svg xmlns="http://www.w3.org/2000/svg" version="1.1" xmlns:xlink="http://www.w3.org/1999/xlink" preserveAspectRatio="none" x="0px" y="0px" width="550px" height="400px" viewBox="0 0 550 400">
<defs>
<g id="File_Icon_0_Layer0_0_FILL">
<path fill="#0CF4AD" stroke="none" d="
M 24.55 6.25
L 29.75 3.15 2.35 3.1 0 6.25 24.55 6.25
M 49.15 47.2
L 49.15 0 34.95 0 29.75 3.15 24.55 6.25 0 6.25 0 47.2 49.15 47.2 Z"/>
</g>

<path id="File_Icon_0_Layer0_0_1_STROKES" stroke="#000000" stroke-width="1" stroke-linejoin="round" stroke-linecap="round" fill="none" d="
M 29.75 3.15
L 34.95 0 49.15 0 49.15 47.2 0 47.2 0 6.25 2.35 3.1 29.75 3.15 24.55 6.25 0 6.25"/>
</defs>

<g transform="matrix( 1, 0, 0, 1, 254.7,190.55) ">
<g transform="matrix( 1, 0, 0, 1, 0,0) ">
<use xlink:href="#File_Icon_0_Layer0_0_FILL"/>

<use xlink:href="#File_Icon_0_Layer0_0_1_STROKES"/>
</g>
</g>
</svg>
