
<svg xmlns="http://www.w3.org/2000/svg" version="1.1" xmlns:xlink="http://www.w3.org/1999/xlink" preserveAspectRatio="none" x="0px" y="0px" width="550px" height="400px" viewBox="0 0 550 400">
<defs>
<g id="File_Icon_0_Layer0_0_FILL">
<path fill="#0CF4AD" stroke="none" d="
M 2.35 3.1
L 0 6.25 24.55 6.25 29.75 3.15 2.35 3.1
M 49.15 47.2
L 49.15 0 34.95 0 29.75 3.15 24.55 6.25 0 6.25 0 47.2 49.15 47.2 Z"/>
</g>

<g id="Lock__0_Layer0_0_FILL">
<path fill="#D3D5CF" stroke="none" d="
M 8.6 6.05
L 1.7 6.05 0 6.05 0 14.75 10.25 14.75 10.25 6.05 8.6 6.05
M 10.25 6.05
L 10.25 1.25
Q 5.15 -1.25 0 1.25
L 0 6.05 1.7 6.05 1.7 2.1
Q 5.15 0.4 8.6 2.1
L 8.6 6.05 10.25 6.05 Z"/>
</g>

<path id="File_Icon_0_Layer0_0_1_STROKES" stroke="#000000" stroke-width="1" stroke-linejoin="round" stroke-linecap="round" fill="none" d="
M 29.75 3.15
L 34.95 0 49.15 0 49.15 47.2 0 47.2 0 6.25 2.35 3.1 29.75 3.15 24.55 6.25 0 6.25"/>

<path id="Lock__0_Layer0_0_1_STROKES" stroke="#000000" stroke-width="1" stroke-linejoin="round" stroke-linecap="round" fill="none" d="
M 0 6.05
L 0 1.25
Q 5.15 -1.25 10.25 1.25
L 10.25 6.05 10.25 14.75 0 14.75 0 6.05 1.7 6.05 1.7 2.1
Q 5.15 0.4 8.6 2.1
L 8.6 6.05 10.25 6.05
M 1.7 6.05
L 8.6 6.05"/>
</defs>

<g transform="matrix( 1.24542236328125, 0, 0, 1.245574951171875, 231.55,159.15) ">
<g transform="matrix( 0.802398681640625, 0, 0, 0.802398681640625, 0,0) ">
<g transform="matrix( 1, 0, 0, 1, 0,0) ">
<use xlink:href="#File_Icon_0_Layer0_0_FILL"/>

<use xlink:href="#File_Icon_0_Layer0_0_1_STROKES"/>
</g>
</g>

<g transform="matrix( 1, 0, 0, 1, 14.6,11.65) ">
<g transform="matrix( 1, 0, 0, 1, 0,0) ">
<use xlink:href="#Lock__0_Layer0_0_FILL"/>

<use xlink:href="#Lock__0_Layer0_0_1_STROKES"/>
</g>
</g>
</g>
</svg>
