
<svg xmlns="http://www.w3.org/2000/svg" version="1.1" xmlns:xlink="http://www.w3.org/1999/xlink" preserveAspectRatio="none" x="0px" y="0px" width="550px" height="400px" viewBox="0 0 550 400">
<defs>
<g id="SysFile_0_Layer0_0_FILL">
<path fill="#F9F9F9" stroke="none" d="
M 0 0
L 0 37.85 39.45 37.85 39.45 0 0 0
M 25.4 9.55
L 27 7.85 30.65 11.85 28.95 13.25
Q 29.75 14.6 30.05 16.15
L 31.9 16.15 31.9 21.3 29.95 21.3
Q 29.6 22.55 29 23.75
L 30.65 25.1 27 29.1 25.45 27.45
Q 24.05 28.35 22.5 28.75
L 22.5 31.1 17.15 31.1 17.2 28.85
Q 15.5 28.45 14.05 27.5
L 12.3 29.4 8.65 25.4 10.55 23.9
Q 9.8 22.65 9.45 21.3
L 7.35 21.3 7.35 16.15 9.35 16.15
Q 9.65 14.65 10.4 13.35
L 8.65 11.9 12.3 7.9 13.9 9.6
Q 15.4 8.6 17.15 8.2
L 17.15 6 22.5 6 22.5 8.25
Q 24.05 8.65 25.4 9.55
M 27.05 18.55
Q 27.05 18.45 27.05 18.35 27 15.4 24.9 13.35 22.75 11.2 19.7 11.2 16.65 11.2 14.5 13.35 12.45 15.4 12.35 18.35 12.35 18.45 12.35 18.55 12.35 20.05 12.85 21.3 13.4 22.65 14.5 23.75 16.65 25.9 19.7 25.9 22.75 25.9 24.9 23.75 26 22.65 26.55 21.3 27.05 20.05 27.05 18.55 Z"/>

<path fill="#999999" stroke="none" d="
M 27 7.85
L 25.4 9.55
Q 24.05 8.65 22.5 8.25
L 22.5 6 17.15 6 17.15 8.2
Q 15.4 8.6 13.9 9.6
L 12.3 7.9 8.65 11.9 10.4 13.35
Q 9.65 14.65 9.35 16.15
L 7.35 16.15 7.35 21.3 9.45 21.3
Q 9.8 22.65 10.55 23.9
L 8.65 25.4 12.3 29.4 14.05 27.5
Q 15.5 28.45 17.2 28.85
L 17.15 31.1 22.5 31.1 22.5 28.75
Q 24.05 28.35 25.45 27.45
L 27 29.1 30.65 25.1 29 23.75
Q 29.6 22.55 29.95 21.3
L 31.9 21.3 31.9 16.15 30.05 16.15
Q 29.75 14.6 28.95 13.25
L 30.65 11.85 27 7.85
M 27.05 18.35
Q 27.05 18.45 27.05 18.55 27.05 20.05 26.55 21.3 26 22.65 24.9 23.75 22.75 25.9 19.7 25.9 16.65 25.9 14.5 23.75 13.4 22.65 12.85 21.3 12.35 20.05 12.35 18.55 12.35 18.45 12.35 18.35 12.45 15.4 14.5 13.35 16.65 11.2 19.7 11.2 22.75 11.2 24.9 13.35 27 15.4 27.05 18.35 Z"/>
</g>

<path id="SysFile_0_Layer0_0_1_STROKES" stroke="#000000" stroke-width="1" stroke-linejoin="round" stroke-linecap="round" fill="none" d="
M 17.15 8.2
L 17.15 6 22.5 6 22.5 8.25
Q 24.05 8.65 25.4 9.55
L 27 7.85 30.65 11.85 28.95 13.25
Q 29.75 14.6 30.05 16.15
L 31.9 16.15 31.9 21.3 29.95 21.3
Q 29.6 22.55 29 23.75
L 30.65 25.1 27 29.1 25.45 27.45
Q 24.05 28.35 22.5 28.75
L 22.5 31.1 17.15 31.1 17.2 28.85
Q 15.5 28.45 14.05 27.5
L 12.3 29.4 8.65 25.4 10.55 23.9
Q 9.8 22.65 9.45 21.3
L 7.35 21.3 7.35 16.15 9.35 16.15
Q 9.65 14.65 10.4 13.35
L 8.65 11.9 12.3 7.9 13.9 9.6
Q 15.4 8.6 17.15 8.2 Z
M 27.05 18.55
Q 27.05 20.05 26.55 21.3 26 22.65 24.9 23.75 22.75 25.9 19.7 25.9 16.65 25.9 14.5 23.75 13.4 22.65 12.85 21.3 12.35 20.05 12.35 18.55 12.35 18.45 12.35 18.35 12.45 15.4 14.5 13.35 16.65 11.2 19.7 11.2 22.75 11.2 24.9 13.35 27 15.4 27.05 18.35 27.05 18.45 27.05 18.55 Z
M 0 0
L 39.45 0 39.45 37.85 0 37.85 0 0 Z"/>
</defs>

<g transform="matrix( 1.245880126953125, 0, 0, 1.2457122802734375, 231.6,159.15) ">
<g transform="matrix( 1, 0, 0, 1, 0,0) ">
<use xlink:href="#SysFile_0_Layer0_0_FILL"/>

<use xlink:href="#SysFile_0_Layer0_0_1_STROKES"/>
</g>
</g>
</svg>
