<?xml version="1.0" encoding="UTF-8" standalone="no"?>
<!-- Created with Inkscape (http://www.inkscape.org/) -->

<svg
   xmlns:dc="http://purl.org/dc/elements/1.1/"
   xmlns:cc="http://creativecommons.org/ns#"
   xmlns:rdf="http://www.w3.org/1999/02/22-rdf-syntax-ns#"
   xmlns:svg="http://www.w3.org/2000/svg"
   xmlns="http://www.w3.org/2000/svg"
   xmlns:sodipodi="http://sodipodi.sourceforge.net/DTD/sodipodi-0.dtd"
   xmlns:inkscape="http://www.inkscape.org/namespaces/inkscape"
   width="210mm"
   height="297mm"
   viewBox="0 0 210 297"
   version="1.1"
   id="svg8"
   inkscape:version="0.92.3 (2405546, 2018-03-11)"
   sodipodi:docname="Enemy1.svg">
  <defs
     id="defs2" />
  <sodipodi:namedview
     id="base"
     pagecolor="#ffffff"
     bordercolor="#666666"
     borderopacity="1.0"
     inkscape:pageopacity="0.0"
     inkscape:pageshadow="2"
     inkscape:zoom="1"
     inkscape:cx="524.79882"
     inkscape:cy="575.78201"
     inkscape:document-units="mm"
     inkscape:current-layer="layer1"
     showgrid="false"
     inkscape:window-width="1920"
     inkscape:window-height="1001"
     inkscape:window-x="-9"
     inkscape:window-y="-9"
     inkscape:window-maximized="1" />
  <metadata
     id="metadata5">
    <rdf:RDF>
      <cc:Work
         rdf:about="">
        <dc:format>image/svg+xml</dc:format>
        <dc:type
           rdf:resource="http://purl.org/dc/dcmitype/StillImage" />
        <dc:title></dc:title>
      </cc:Work>
    </rdf:RDF>
  </metadata>
  <g
     inkscape:label="Layer 1"
     inkscape:groupmode="layer"
     id="layer1">
    <flowRoot
       xml:space="preserve"
       id="flowRoot1072"
       style="fill:black;fill-opacity:1;stroke:none;font-family:sans-serif;font-style:normal;font-weight:normal;font-size:40px;line-height:1.25;letter-spacing:0px;word-spacing:0px"><flowRegion
         id="flowRegion1074"><rect
           id="rect1076"
           width="408.00061"
           height="239.7092"
           x="115.96552"
           y="434.50479" /></flowRegion><flowPara
         id="flowPara1078"></flowPara></flowRoot>    <flowRoot
       xml:space="preserve"
       id="flowRoot1080"
       style="fill:black;fill-opacity:1;stroke:none;font-family:sans-serif;font-style:normal;font-weight:normal;font-size:40px;line-height:1.25;letter-spacing:0px;word-spacing:0px"><flowRegion
         id="flowRegion1082"><rect
           id="rect1084"
           width="347.18942"
           height="240.41631"
           x="190.21173"
           y="447.2327" /></flowRegion><flowPara
         id="flowPara1086"></flowPara></flowRoot>    <ellipse
       style="opacity:0.98000004;fill:#ffffff;fill-opacity:1;fill-rule:nonzero;stroke:#000000;stroke-width:0.86500001;stroke-miterlimit:4;stroke-dasharray:none;stroke-opacity:1"
       id="path1127"
       cx="94.573318"
       cy="111.9693"
       rx="40.878876"
       ry="40.036972" />
    <path
       style="fill:none;stroke:#000000;stroke-width:0.26458332px;stroke-linecap:butt;stroke-linejoin:miter;stroke-opacity:1"
       d="m 71.280781,144.70982 c 0,0 11.41241,-7.10937 21.14102,6.92228"
       id="path1137"
       inkscape:connector-curvature="0" />
    <path
       style="fill:none;stroke:#000000;stroke-width:0.26458332px;stroke-linecap:butt;stroke-linejoin:miter;stroke-opacity:1"
       d="m 98.969905,151.81919 c 0,0 6.361015,-13.84456 20.205575,-7.85772"
       id="path1139"
       inkscape:connector-curvature="0" />
    <path
       style="fill:#f94747;stroke:none;stroke-width:0.70710677;fill-opacity:1"
       d="m 335.65277,570.99197 c -14.59626,-2.18614 -30.27649,-6.86813 -43.62878,-13.02719 -7.10226,-3.2761 -19.30372,-10.39083 -19.30372,-11.25611 0,-0.95269 6.89431,-3.34107 13.51933,-4.68347 15.10441,-3.06055 30.8136,1.2736 44.51733,12.28228 5.31397,4.2689 16.20955,15.88127 16.20955,17.27593 0,0.76784 -3.4382,0.5881 -11.31371,-0.59144 z"
       id="path1141"
       inkscape:connector-curvature="0"
       transform="scale(0.26458333)" />
    <path
       style="fill:#f74949;stroke:none;stroke-width:0.70710677;fill-opacity:1"
       d="m 376.66496,571.0197 c 0,-1.07931 6.37699,-9.51923 10.47391,-13.86218 7.88482,-8.35833 16.11013,-13.48107 26.0041,-16.19545 7.24866,-1.98864 19.09481,-1.68392 27.69193,0.71233 3.2085,0.89429 5.83363,1.84775 5.83363,2.1188 0,0.95129 -10.35056,7.2313 -20.07811,12.182 -14.03954,7.14524 -29.53218,12.03694 -47.62736,15.03804 -1.26395,0.20962 -2.2981,0.21253 -2.2981,0.006 z"
       id="path1143"
       inkscape:connector-curvature="0"
       transform="scale(0.26458333)" />
    <path
       style="fill:#51be0a;stroke:none;stroke-width:0.70710677;fill-opacity:1"
       d="m 352.85507,572.30849 c -2.77189,-0.23263 -3.25849,-0.63362 -8.04927,-6.63317 -9.04887,-11.33198 -19.82133,-19.32375 -31.61831,-23.4567 -5.36393,-1.87919 -7.37676,-2.20047 -15.36493,-2.45244 -10.07972,-0.31795 -15.22973,0.51645 -23.42595,3.79546 l -4.54134,1.81682 -4.28276,-3.18257 c -46.14214,-34.28878 -68.86439,-92.00304 -57.85102,-146.94096 10.17854,-50.77355 44.93988,-91.65967 94.51341,-111.16621 19.92948,-7.84199 46.33759,-11.62439 67.71255,-9.69838 71.61003,6.45247 128.55456,59.28886 138.51596,128.52304 1.42996,9.93858 1.47811,29.82144 0.0958,39.54379 -4.05372,28.51052 -15.00612,53.30893 -33.13759,75.03002 -5.76773,6.90962 -16.87309,17.75324 -22.64399,22.11032 l -3.76382,2.84171 -4.17782,-1.43971 c -5.22688,-1.80123 -14.8515,-3.5109 -19.76458,-3.5109 -8.40363,0 -18.72903,3.00975 -27.03677,7.88098 -5.40536,3.1694 -16.71465,14.6303 -20.66252,20.93949 -2.58872,4.1371 -3.57749,5.14748 -5.3033,5.4192 -3.08612,0.48589 -15.7727,0.869 -19.2137,0.58021 z"
       id="path1145"
       inkscape:connector-curvature="0"
       transform="scale(0.26458333)" />
    <path
       style="fill:#f94747;stroke:none;stroke-width:0.04419417;fill-opacity:1"
       d="m 347.1813,572.51914 c -14.23674,-1.00305 -26.98178,-3.56463 -40.30508,-8.10077 -10.1959,-3.47135 -20.59099,-8.34092 -29.99669,-14.0519 -2.23386,-1.35636 -5.7968,-3.64837 -5.79951,-3.73078 -0.003,-0.0782 2.10907,-1.07792 3.5594,-1.6852 7.58352,-3.17536 15.98174,-4.65221 24.01668,-4.22342 8.60647,0.4593 16.95689,3.05805 24.74874,7.70211 8.27439,4.93168 15.93221,12.10376 22.98781,21.52971 0.69193,0.92439 1.65348,2.24629 1.82434,2.50802 l 0.0793,0.12153 -0.14871,-0.006 c -0.0818,-0.003 -0.51663,-0.0318 -0.96631,-0.0634 z m -0.63416,-0.56609 c 0.46019,-0.14664 0.53045,-0.3292 0.30106,-0.78228 -1.16173,-2.29463 -9.86236,-11.56708 -14.98756,-15.97259 -3.59386,-3.08919 -8.15153,-6.11623 -12.54376,-8.33112 -10.28059,-5.18423 -21.1019,-6.93542 -31.66513,-5.12432 -4.53917,0.77826 -10.72981,2.55487 -13.45713,3.86198 -1.06202,0.50899 -1.4805,0.81902 -1.4805,1.09682 0,0.11309 0.0477,0.18562 0.24435,0.37159 1.04957,0.99251 5.28029,3.6216 10.31806,6.41192 5.72065,3.16856 9.85036,5.13992 15.62264,7.45764 10.24816,4.1149 21.24682,7.30281 32.01868,9.28047 4.05467,0.74442 9.71267,1.54377 12.35227,1.7451 0.34029,0.026 0.69827,0.0546 0.79549,0.0635 0.0972,0.009 0.64413,0.0113 1.21534,0.005 0.81704,-0.009 1.08712,-0.0268 1.26619,-0.0838 z"
       id="path1155"
       inkscape:connector-curvature="0"
       transform="scale(0.26458333)" />
    <path
       style="fill:#f74949;stroke:none;stroke-width:0.04419417;fill-opacity:1"
       d="m 375.92903,571.37066 c 0.65763,-1.20973 1.92241,-3.26299 3.00132,-4.87241 4.83256,-7.20875 10.70696,-13.38912 17.02711,-17.91397 7.41824,-5.31102 15.39781,-8.42246 23.98478,-9.35227 2.86273,-0.30999 6.43945,-0.35178 9.41336,-0.10998 5.41875,0.44057 11.07053,1.72806 16.6833,3.80052 1.4063,0.51926 1.98874,0.74724 1.98874,0.77844 0,0.0162 -0.36295,0.28738 -0.80655,0.60268 -8.91003,6.33305 -18.45707,11.68287 -28.60468,16.02904 -12.31379,5.27395 -25.41194,8.96012 -38.69661,10.89028 -1.63226,0.23716 -3.90668,0.53437 -4.08927,0.53437 h -0.11172 z m 2.40607,-0.25115 c 1.10177,-0.13773 4.92272,-0.82329 7.62182,-1.36752 13.57189,-2.73653 25.25465,-6.49259 36.52648,-11.74341 9.05349,-4.21744 23.33567,-12.53709 24.15359,-14.06994 l 0.0869,-0.16289 -0.11036,-0.0899 c -0.57882,-0.47161 -4.51813,-1.77186 -7.49104,-2.47256 -6.83535,-1.61105 -15.34952,-2.02527 -22.0308,-1.07181 -1.47224,0.2101 -3.02308,0.53496 -4.38254,0.91802 -6.1439,1.73119 -11.77106,4.49332 -16.91905,8.30483 -3.44318,2.5493 -7.11932,5.95733 -10.1651,9.42376 -3.48382,3.96496 -7.86142,9.77887 -8.77548,11.65476 -0.22724,0.46634 -0.2438,0.65082 -0.0629,0.70071 0.19576,0.054 1.0275,0.0411 1.54847,-0.024 z"
       id="path1157"
       inkscape:connector-curvature="0"
       transform="scale(0.26458333)" />
    <path
       style="fill:#51be0a;stroke:none;stroke-width:0.04419417;fill-opacity:1"
       d="m 390.84037,551.16536 c 0,-0.078 2.22355,-2.04667 3.40296,-3.01293 1.86248,-1.52589 3.10319,-2.38257 4.88345,-3.37191 6.60776,-3.6721 14.37072,-6.20447 21.47837,-7.00648 1.99454,-0.22506 4.23376,-0.31326 5.78944,-0.22803 4.50236,0.24667 11.00386,1.35228 15.90338,2.70443 1.20993,0.33392 1.81311,0.52874 4.52845,1.46265 2.00031,0.68797 2.18758,0.74445 2.276,0.68645 0.13877,-0.091 4.12601,-3.10765 4.35005,-3.29111 l 0.18783,-0.1538 v 0.26309 c 0,0.30556 0.15487,0.15187 -1.27068,1.26095 -1.08826,0.84667 -3.18249,2.41865 -3.26368,2.44981 -0.0318,0.0122 -0.41344,-0.11787 -0.84812,-0.28904 -10.64626,-4.19236 -20.65844,-5.59014 -30.23803,-4.22146 -9.51828,1.35992 -18.41772,5.48324 -26.48913,12.27304 -0.59011,0.49641 -0.69029,0.56525 -0.69029,0.47434 z"
       id="path1159"
       inkscape:connector-curvature="0"
       transform="scale(0.26458333)" />
    <path
       style="fill:#a0a0a0;stroke:none;stroke-width:0.02209709"
       d=""
       id="path1161"
       inkscape:connector-curvature="0"
       transform="scale(0.26458333)" />
    <path
       style="fill:#51be0a;stroke:none;stroke-width:0.02209709;fill-opacity:1"
       d="m 337.4875,558.10285 c -0.2177,-0.22204 -1.35881,-1.30886 -1.84532,-1.75753 -7.16045,-6.60349 -14.79766,-11.2665 -22.88493,-13.97272 -3.28188,-1.09821 -6.63017,-1.8699 -10.04874,-2.31597 -0.0783,-0.0102 -0.13478,-0.0292 -0.1408,-0.0472 -0.008,-0.0245 0.0224,-0.0276 0.16391,-0.0162 0.0957,0.008 0.37281,0.0289 0.61588,0.0471 3.55605,0.26658 5.75469,0.75605 9.82216,2.18665 4.30805,1.51522 8.41336,3.49903 12.38541,5.98499 4.10894,2.57164 8.19581,5.78368 11.7737,9.25343 l 0.30531,0.29608 -0.007,0.23832 -0.007,0.23833 z"
       id="path1163"
       inkscape:connector-curvature="0"
       transform="scale(0.26458333)" />
    <path
       style="fill:#51be0a;stroke:none;stroke-width:0.02209709;fill-opacity:1"
       d="m 354.83451,572.84476 c -0.64274,-0.0112 -2.29426,-0.0543 -2.83947,-0.0741 -1.15246,-0.042 -2.27707,-0.0903 -2.3202,-0.0997 -0.0275,-0.006 -0.17353,-0.19509 -0.3867,-0.50068 -2.85994,-4.09992 -6.14663,-8.15718 -9.4747,-11.69606 l -0.33249,-0.35355 0.23559,-0.007 0.23558,-0.007 0.11049,0.11956 c 0.0608,0.0658 0.29001,0.31247 0.50944,0.54825 1.41803,1.52372 2.83682,3.17696 4.34074,5.05802 3.2538,4.06977 4.34425,5.24923 5.40841,5.84989 1.00574,0.56769 2.00871,0.69862 5.57397,0.72769 5.74414,0.0468 14.7211,-0.34811 16.45595,-0.72398 0.43311,-0.0938 0.87898,-0.28157 1.24252,-0.52316 0.57178,-0.37997 1.22506,-1.07413 1.95955,-2.08217 0.31106,-0.4269 1.01448,-1.47903 1.4995,-2.24285 0.57342,-0.90303 0.72207,-1.1315 0.99201,-1.5247 0.95962,-1.39778 2.22151,-3.01601 3.73485,-4.78954 l 0.35353,-0.41432 h 0.10672 0.10671 l -0.34947,0.43641 c -2.84134,3.54832 -5.42016,7.41655 -7.46147,11.19221 -0.0723,0.13373 -0.11934,0.19659 -0.15247,0.20379 -0.0867,0.0188 -1.88742,0.19974 -2.85424,0.28675 -3.77931,0.34012 -7.22027,0.52843 -11.12588,0.60888 -0.89538,0.0184 -4.64051,0.0232 -5.56847,0.007 z"
       id="path1165"
       inkscape:connector-curvature="0"
       transform="scale(0.26458333)" />
  </g>
</svg>
